<?xml version="1.0" encoding="UTF-8" standalone="no"?>
<!-- Created with Inkscape (http://www.inkscape.org/) -->

<svg
   xmlns:dc="http://purl.org/dc/elements/1.1/"
   xmlns:cc="http://creativecommons.org/ns#"
   xmlns:rdf="http://www.w3.org/1999/02/22-rdf-syntax-ns#"
   xmlns:svg="http://www.w3.org/2000/svg"
   xmlns="http://www.w3.org/2000/svg"
   xmlns:sodipodi="http://sodipodi.sourceforge.net/DTD/sodipodi-0.dtd"
   xmlns:inkscape="http://www.inkscape.org/namespaces/inkscape"
   width="512"
   height="512"
   viewBox="0 0 135.46666 135.46666"
   version="1.1"
   id="svg8"
   inkscape:version="0.92.2 2405546, 2018-03-11"
   inkscape:export-xdpi="96"
   inkscape:export-ydpi="96">
  <defs
     id="defs2" />
  <sodipodi:namedview
     id="base"
     pagecolor="#ffffff"
     bordercolor="#666666"
     borderopacity="1.0"
     inkscape:pageopacity="0.0"
     inkscape:pageshadow="2"
     inkscape:zoom="0.25"
     inkscape:cx="37.0483"
     inkscape:cy="71.299215"
     inkscape:document-units="mm"
     inkscape:current-layer="layer1"
     showgrid="false"
     units="px"
     inkscape:window-width="3840"
     inkscape:window-height="2026"
     inkscape:window-x="0"
     inkscape:window-y="0"
     inkscape:window-maximized="1"
     inkscape:document-rotation="0">
    <inkscape:grid
       type="xygrid"
       id="grid826" />
  </sodipodi:namedview>
  <metadata
     id="metadata5">
    <rdf:RDF>
      <cc:Work
         rdf:about="">
        <dc:format>image/svg+xml</dc:format>
        <dc:type
           rdf:resource="http://purl.org/dc/dcmitype/StillImage" />
        <dc:title />
      </cc:Work>
    </rdf:RDF>
  </metadata>
  <g
     inkscape:label="Ebene 1"
     inkscape:groupmode="layer"
     id="layer1"
     transform="translate(0,-161.53336)">
    <rect
       style="opacity:1;fill:#d6ebf8;fill-opacity:1;stroke-width:0.46094164"
       id="rect867"
       width="135.46666"
       height="135.46666"
       x="-8.8817842e-16"
       y="161.53337" />
    <path
       sodipodi:nodetypes="sssss"
       inkscape:connector-curvature="0"
       id="path883"
       d="m 34.733771,239.49658 c -3.922744,0.42335 -6.472991,6.60198 -5.952962,11.42066 0.520034,4.81868 3.913419,6.45266 7.836165,6.02933 3.922748,-0.42335 6.889385,-2.74371 6.369353,-7.56239 -0.520034,-4.81868 -4.329806,-10.31094 -8.252556,-9.8876 z"
       style="opacity:1;fill:#ebc2bf;fill-opacity:1;stroke-width:0.08819753" />
    <path
       style="opacity:1;fill:#64d066;fill-opacity:1;stroke-width:0.99999994"
       d="M 52,351 63.120278,420.06991 26.442574,383.9905 41.972525,450.99433 8.4554443,448.00137 0,512.00002 H 511.99998 L 480.2793,404.6784 l -33.9478,37.55925 -8.92892,-60.52585 -27.20332,44.84684 12.01704,-75.89224 -58.25453,58.86737 6.76298,-80.8711 L 328,374 l 3.08483,-61.66801 -43.80184,46.5184 7.04627,-57.94833 -37.79456,42.78041 -7.18592,-24.0007 -17.43702,25.73312 2.5671,-37.26743 -31.61717,20.00292 -13.77694,-21.45699 -35.02981,38.27881 -31.9415,-47.51683 -4.11728,60.52042 -32.401237,-23.23056 15.315777,57.77809 z"
       transform="matrix(0.26458333,0,0,0.26458333,0,161.53336)"
       id="rect869"
       inkscape:connector-curvature="0"
       sodipodi:nodetypes="cccccccccccccccccccccccccccccc" />
    <path
       sodipodi:nodetypes="sssss"
       inkscape:connector-curvature="0"
       id="path877"
       d="m 17.168933,250.13593 c -5.781708,1.50105 -8.2357443,11.31874 -6.391857,18.42095 1.843892,7.10222 7.287462,8.79951 13.069167,7.29846 5.781705,-1.50106 9.712131,-5.63204 7.868243,-12.73425 -1.843888,-7.10223 -8.763849,-14.48622 -14.545553,-12.98516 z"
       style="opacity:1;fill:#f9edf7;fill-opacity:1;stroke-width:0.13352793" />
    <path
       sodipodi:nodetypes="cccccccccccccccccccccccccccccc"
       inkscape:connector-curvature="0"
       id="path872"
       d="m 121.70833,254.40211 -2.94224,18.27475 9.70431,-9.54601 -4.10897,17.72809 8.86806,-0.79189 2.23717,16.93298 H 0 l 8.3927631,-28.39551 8.9820219,9.93755 2.362444,-16.01413 7.197544,11.86573 -3.179508,-20.07983 15.413178,15.57533 -1.789372,-21.39715 11.304256,11.99551 -6.803031,-17.62595 17.576074,13.61761 -4.670656,-15.98697 12.80614,11.97379 3.023808,-10.27904 3.491012,10.73741 3.810916,-14.53755 3.875248,9.96965 4.206415,-9.60602 8.707038,14.05679 8.451189,-12.57216 1.08936,16.0127 8.57283,-6.14642 -4.0523,15.28712 z"
       style="opacity:1;fill:#78d67a;fill-opacity:1;stroke-width:0.26458332" />
    <path
       style="opacity:1;fill:#b2e6ae;fill-opacity:1;stroke-width:0.35765758"
       d="m 75.621655,202.03061 c -15.773513,-2.68162 -32.549642,18.6091 -35.843731,37.98519 -3.294091,19.3761 8.14126,29.50027 23.914773,32.18189 15.773509,2.68162 29.912079,-3.09477 33.20617,-22.47088 3.294093,-19.37609 -5.503703,-45.01458 -21.277212,-47.6962 z"
       id="path874"
       inkscape:connector-curvature="0"
       sodipodi:nodetypes="sssss" />
    <path
       sodipodi:nodetypes="sssss"
       inkscape:connector-curvature="0"
       id="path879"
       d="m 111.71139,254.31384 c -5.51555,-1.1084 -11.63565,6.19797 -12.997215,12.97325 -1.36156,6.77528 2.551015,10.45381 8.066575,11.56222 5.51555,1.1084 10.54546,-0.77305 11.90702,-7.54832 1.36156,-6.77529 -1.46082,-15.87874 -6.97638,-16.98715 z"
       style="opacity:1;fill:#d0d064;fill-opacity:1;stroke-width:0.12575875" />
    <path
       style="opacity:1;fill:#88db89;fill-opacity:1;stroke-width:0.26458332"
       d="m 121.70833,270.27712 -2.94224,18.27475 9.70431,-9.54601 -4.10897,17.72809 8.86806,-0.79189 2.23717,1.05798 H 0 l 8.3927631,-12.52051 8.9820219,9.93755 2.362444,-16.01413 7.197544,11.86573 -3.179508,-20.07983 15.413178,15.57533 -1.789372,-21.39715 11.304256,11.99551 -6.803031,-17.62595 17.576074,13.61761 -4.670656,-15.98697 12.80614,11.97379 3.023808,-10.27904 3.491012,10.73741 3.810916,-14.53755 3.875248,9.96965 4.206415,-9.60602 8.707038,14.05679 8.451189,-12.57216 1.08936,16.0127 8.57283,-6.14642 -4.0523,15.28712 z"
       id="path881"
       inkscape:connector-curvature="0"
       sodipodi:nodetypes="cccccccccccccccccccccccccccccc" />
    <g
       style="fill:#f3f3f3;fill-opacity:1"
       inkscape:label="Ebene 0"
       id="g893"
       transform="matrix(0.11527896,0.01959834,-0.01959834,0.11527896,53.446018,242.17781)">
      <g
         style="fill:#f3f3f3;fill-opacity:1"
         id="g891"
         transform="matrix(4,0,0,4,0,-192)">
        <path
           sodipodi:nodetypes="ccccccc"
           inkscape:connector-curvature="0"
           id="path885"
           d="M 0,0 V 64 H 18 V 18 H 41 V 0 Z"
           style="opacity:1;fill:#f3f3f3;fill-opacity:1;stroke:none;stroke-width:3;stroke-miterlimit:4;stroke-dasharray:none;stroke-opacity:1" />
        <path
           sodipodi:nodetypes="ccccc"
           inkscape:connector-curvature="0"
           id="path887"
           d="m 22.999999,23 2e-6,41 H 41 V 23 Z"
           style="opacity:1;fill:#f3f3f3;fill-opacity:1;stroke:none;stroke-width:3;stroke-miterlimit:4;stroke-dasharray:none;stroke-opacity:1" />
        <path
           sodipodi:nodetypes="ccccc"
           inkscape:connector-curvature="0"
           id="path889"
           d="M 46,1e-6 V 64 H 64 V 1e-6 Z"
           style="opacity:1;fill:#f3f3f3;fill-opacity:1;stroke:none;stroke-width:3;stroke-miterlimit:4;stroke-dasharray:none;stroke-opacity:1" />
      </g>
    </g>
  </g>
</svg>
